<?xml version="1.0" encoding="UTF-8" standalone="no"?>
<svg
   xmlns:dc="http://purl.org/dc/elements/1.1/"
   xmlns:cc="http://creativecommons.org/ns#"
   xmlns:rdf="http://www.w3.org/1999/02/22-rdf-syntax-ns#"
   xmlns:svg="http://www.w3.org/2000/svg"
   xmlns="http://www.w3.org/2000/svg"
   xmlns:sodipodi="http://sodipodi.sourceforge.net/DTD/sodipodi-0.dtd"
   xmlns:inkscape="http://www.inkscape.org/namespaces/inkscape"
   width="605pt"
   height="599pt"
   viewBox="0 0 605 599"
   version="1.1"
   id="svg2999"
   inkscape:version="0.48.4 r9939"
   sodipodi:docname="1.svg">
  <metadata
     id="metadata3011">
    <rdf:RDF>
      <cc:Work
         rdf:about="">
        <dc:format>image/svg+xml</dc:format>
        <dc:type
           rdf:resource="http://purl.org/dc/dcmitype/StillImage" />
        <dc:title></dc:title>
      </cc:Work>
    </rdf:RDF>
  </metadata>
  <defs
     id="defs3009" />
  <sodipodi:namedview
     pagecolor="#ffffff"
     bordercolor="#666666"
     borderopacity="1"
     objecttolerance="10"
     gridtolerance="10"
     guidetolerance="10"
     inkscape:pageopacity="0"
     inkscape:pageshadow="2"
     inkscape:window-width="1366"
     inkscape:window-height="706"
     id="namedview3007"
     showgrid="false"
     inkscape:zoom="0.5"
     inkscape:cx="378.125"
     inkscape:cy="350.72487"
     inkscape:window-x="-8"
     inkscape:window-y="-8"
     inkscape:window-maximized="1"
     inkscape:current-layer="svg2999" />
  <g
     id="#c09300ff">
    <path
       fill="#c09300"
       opacity="1.00"
       d=" M 286.95 0.00 L 318.96 0.00 C 323.00 1.29 327.29 0.77 331.42 1.53 C 383.13 5.85 433.29 24.67 475.99 53.99 C 490.91 64.88 505.52 76.32 518.43 89.57 C 545.46 116.91 567.20 149.42 582.15 184.84 C 594.28 214.12 601.84 245.34 604.09 276.96 C 604.19 278.71 604.52 280.43 605.00 282.12 L 605.00 315.90 C 603.28 325.94 603.13 336.20 601.18 346.22 C 590.69 413.82 555.44 477.06 504.14 522.20 C 454.27 566.57 389.26 593.66 322.62 597.61 C 318.47 598.15 314.20 597.79 310.14 599.00 L 295.95 599.00 C 284.27 597.00 272.28 597.61 260.61 595.36 C 206.14 588.12 154.01 565.22 111.35 530.67 C 98.65 520.15 86.20 509.17 75.64 496.45 C 32.91 448.53 6.10 386.41 1.60 322.29 C 0.59 316.95 1.54 311.41 0.00 306.15 L 0.00 292.73 C 1.33 287.14 0.62 281.35 1.58 275.72 C 3.51 247.46 10.18 219.61 20.14 193.13 C 34.25 156.11 56.06 122.12 83.35 93.44 C 86.44 89.50 90.23 86.23 93.97 82.95 C 142.52 36.81 206.84 7.44 273.60 1.54 C 278.01 0.67 282.62 1.38 286.95 0.00 M 284.53 9.84 C 217.51 13.54 152.01 41.11 102.81 86.84 C 95.22 93.24 88.57 100.61 81.95 107.97 C 41.55 153.23 15.67 211.48 10.24 271.99 C 8.55 285.60 9.57 299.33 9.26 313.00 C 11.37 366.79 29.64 419.64 60.25 463.84 C 84.87 499.41 117.56 529.32 155.08 550.83 C 193.10 572.72 236.10 585.94 279.88 589.02 C 290.88 590.15 301.96 589.58 313.01 589.68 C 379.48 587.50 444.92 561.81 495.05 518.08 C 524.32 492.75 548.53 461.57 565.73 426.87 C 582.13 393.58 592.12 357.10 594.63 320.06 C 594.99 309.05 596.15 298.00 594.94 287.00 C 592.65 216.92 562.62 148.39 513.54 98.45 C 479.23 62.75 435.51 36.34 388.18 21.94 C 354.70 11.84 319.43 7.70 284.53 9.84 Z"
       id="path3002" />
  </g>
  <g
     id="#002768ff">
    <path
       fill="#002768"
       opacity="1.00"
       d=" M 284.53 9.84 C 319.43 7.70 354.70 11.84 388.18 21.94 C 435.51 36.34 479.23 62.75 513.54 98.45 C 562.62 148.39 592.65 216.92 594.94 287.00 C 596.15 298.00 594.99 309.05 594.63 320.06 C 592.12 357.10 582.13 393.58 565.73 426.87 C 548.53 461.57 524.32 492.75 495.05 518.08 C 444.92 561.81 379.48 587.50 313.01 589.68 C 301.96 589.58 290.88 590.15 279.88 589.02 C 236.10 585.94 193.10 572.72 155.08 550.83 C 117.56 529.32 84.87 499.41 60.25 463.84 C 29.64 419.64 11.37 366.79 9.26 313.00 C 9.57 299.33 8.55 285.60 10.24 271.99 C 15.67 211.48 41.55 153.23 81.95 107.97 C 88.57 100.61 95.22 93.24 102.81 86.84 C 152.01 41.11 217.51 13.54 284.53 9.84 Z"
       id="path3005" />
  </g>
  <g
     id="g3417"
     transform="translate(0.35019,-4.519883)">
    <g
       id="#c09300ff-1">
      <path
         id="path3218"
         d="m 352.58,37.32 c 2.5,-0.07 5,-0.07 7.51,0.02 0.04,1.49 0.72,3.06 0.13,4.5 -1.78,1.38 -4.3,2.62 -6.52,1.56 -1.19,-0.89 -2.18,-2 -3.22,-3.06 0.69,-1.01 1.39,-2.01 2.1,-3.02 z"
         inkscape:connector-curvature="0"
         style="fill:#c09300" />
      <path
         id="path3220"
         d="m 247.39,44.72 c 3.48,-0.5 6.99,-0.69 10.5,-0.47 2.15,6.8 3.91,13.77 4.77,20.86 -2.97,0.82 -5.97,1.5 -9.04,1.82 -2.24,-7.35 -4.23,-14.79 -6.23,-22.21 z"
         inkscape:connector-curvature="0"
         style="fill:#c09300" />
      <path
         id="path3222"
         d="m 274.4,46.45 c 6.44,-1.16 13.02,-0.91 19.54,-1.29 9.11,0.06 18.37,-0.68 27.35,1.31 0.16,2.8 -0.04,5.61 -0.19,8.4 3.78,-2.9 6.96,-6.82 11.65,-8.31 4.66,-1.81 9.79,-1.52 14.6,-0.54 -2.19,6.31 -3.82,13.32 -8.35,18.4 -6.34,-0.26 -12.62,-1.54 -18.96,-1.85 -14.61,-0.56 -29.29,-0.65 -43.8,1.33 -2.26,2.47 -3.5,6.15 -6.91,7.35 -3.09,0.82 -6.34,0.29 -9.47,0 1.92,-2.35 4.46,-4.1 6.41,-6.42 -0.02,-5.49 -2.71,-10.58 -3.42,-16 3.05,-0.97 6.19,-1.77 9.42,-1.64 0.89,2.84 1.74,5.7 3.1,8.36 0.19,-3.07 -0.43,-6.09 -0.97,-9.1 m 10.09,4.72 c -0.01,1.2 -0.02,2.4 -0.02,3.6 8.46,-0.03 16.92,-0.67 25.38,-0.04 -0.05,-1.12 -0.09,-2.25 -0.13,-3.38 -8.32,-1.23 -16.9,-1.33 -25.23,-0.18 M 331.63,53 c 1.68,1.24 3.64,1.84 5.73,1.49 -0.22,-0.9 -0.66,-2.71 -0.88,-3.61 -1.63,0.67 -3.26,1.37 -4.85,2.12 z"
         inkscape:connector-curvature="0"
         style="fill:#c09300" />
      <path
         id="path3224"
         d="m 235.11,47.09 c 3.16,-0.68 6.39,-1.78 9.66,-1.21 2.92,6.69 4.2,14.04 5.9,21.12 -12.87,2.89 -25.85,5.56 -38.28,10.05 -0.49,7.04 -5.76,13.08 -12.65,14.59 0.55,-3.34 3.07,-6.63 1.66,-10.07 -2.54,-5.64 -7.25,-9.97 -9.8,-15.62 3.21,-1.57 6.52,-2.92 9.92,-4.01 2.15,2.57 3.51,6.04 6.49,7.76 2.63,-0.1 4.95,-1.49 7.27,-2.59 -2.73,-2.75 -5.99,-4.87 -8.88,-7.43 5.99,-3.56 12.91,-5.2 19.76,-6.05 0.05,3.78 0.02,7.56 0.15,11.34 4.13,-0.68 8.74,-1.12 12.06,-3.88 -0.68,-4.76 -2.59,-9.24 -3.26,-14 z"
         inkscape:connector-curvature="0"
         style="fill:#c09300" />
      <path
         id="path3226"
         d="m 359.2,48.31 c 4.57,-2 9.65,-2 14.52,-1.41 -1.48,4.4 -4.97,7.75 -6.22,12.25 5.4,-0.43 6.51,-6.42 9.54,-9.87 2.74,1.13 5.44,2.32 8.14,3.56 -3.48,6.25 -7.26,12.39 -11.6,18.08 -4.37,-0.05 -8.43,-1.8 -12.65,-2.71 -5.99,-1.48 -12.13,-2.28 -18.12,-3.77 4.65,-6.06 8.8,-13.43 16.39,-16.13 m -1.04,6 c -0.05,0.59 -0.15,1.78 -0.2,2.37 1.27,-0.01 2.54,-0.02 3.81,-0.04 -0.04,-0.57 -0.13,-1.71 -0.17,-2.28 -1.15,-0.02 -2.3,-0.04 -3.44,-0.05 z"
         inkscape:connector-curvature="0"
         style="fill:#c09300" />
      <path
         id="path3228"
         d="m 388.62,53.94 c 2.91,0.82 5.77,1.93 8.26,3.69 -4.25,5.5 -7.97,11.45 -12.7,16.56 -3.97,4.55 -10.67,4.08 -16.02,2.97 2.42,-3.43 7.38,-3.74 9.42,-7.53 3.49,-5.36 6.93,-10.78 11.04,-15.69 z"
         inkscape:connector-curvature="0"
         style="fill:#c09300" />
      <path
         id="path3230"
         d="m 403.96,60.62 c 4.01,0.37 8.02,-0.05 11.93,-0.99 -1.85,5.08 -6.54,8.29 -8.61,13.23 2.68,-0.5 5.22,-1.5 7.86,-2.15 2.39,-0.21 4.7,0.64 7.06,0.92 -2.09,-2.25 -4.31,-4.38 -6.27,-6.74 3.01,-1.11 6.03,0.34 8.72,1.63 2.78,1.34 5.49,3.22 6.85,6.09 1.82,3.01 -0.23,6.4 -0.58,9.54 4.61,0.1 9.92,-0.13 13.41,3.46 2.36,1.8 2.83,4.75 3.62,7.4 3.49,2.58 6.76,6.02 11.18,6.83 -0.41,-4.85 -4.18,-8.1 -6.32,-12.17 4.87,1.22 9.74,3.66 12.54,7.99 2.01,3.33 -0.13,7.03 -1.57,10.12 -1.58,2.75 -1.03,6 -1.21,9.02 -7.77,-3.3 -13.22,-10.31 -20.73,-14.14 -2.69,-0.23 -5.26,1.08 -7.95,1.06 -4.81,0.17 -9.85,-2.52 -11.88,-6.97 -0.56,-1.96 -0.25,-4.03 -0.62,-6.02 -5.22,-3.09 -10.55,-6.42 -16.35,-8.18 -3.68,1.56 -6.92,4.41 -11.05,4.72 -4.48,0.09 -9.45,-0.87 -12.45,-4.5 3.5,-0.45 7.25,-0.13 10.45,-1.88 -0.21,-2.69 -3.4,-3.34 -4.98,-5.11 0.81,-2.74 3.25,-4.59 4.9,-6.85 2.83,-3.7 7.21,-6.67 12.05,-6.31 m -6.05,6.87 c 0.1,1.07 0.21,2.14 0.33,3.2 2.26,0 4.52,-0.32 4.8,-2.99 -1.71,-0.09 -3.42,-0.16 -5.13,-0.21 m 34.54,22.5 c -0.26,0.8 -0.8,2.41 -1.07,3.21 2.38,0.99 4.77,0.86 6.32,-1.43 -1.64,-0.9 -3.44,-1.38 -5.25,-1.78 z"
         inkscape:connector-curvature="0"
         style="fill:#c09300" />
      <path
         id="path3232"
         d="m 178.87,72.14 c 2.49,-1.57 5.09,-3.26 8.04,-3.75 1.26,-0.26 1.99,1.15 2.8,1.86 2.95,3.76 5.7,7.73 8,11.93 -3.04,2.66 -7,3.96 -10.48,5.94 -11.05,5.39 -21.77,11.41 -32.17,17.94 -3.08,2.07 -5.97,4.45 -9.36,6 -0.32,-2.94 0.38,-6.13 -1.05,-8.86 -1.85,-3.69 -3.23,-8.15 -1.6,-12.16 1.67,-3.1 4.14,-5.76 6.94,-7.87 4.16,2.47 7.17,6.42 11.01,9.33 2.45,-1.36 4.98,-2.62 7.17,-4.4 -2.12,-2.83 -4.78,-5.25 -6.37,-8.45 2.64,-1.64 5.41,-3.06 8.25,-4.32 2.41,2.32 4.48,5.03 7.16,7.06 2.69,0.98 4.66,-1.67 6.61,-3.05 -1.75,-2.32 -3.74,-4.52 -4.95,-7.2 m -28.53,21.72 c -0.13,0.89 -0.41,2.69 -0.55,3.58 1.81,-0.48 3.68,-0.91 5.26,-1.98 -1.56,-0.59 -3.13,-1.11 -4.71,-1.6 z"
         inkscape:connector-curvature="0"
         style="fill:#c09300" />
      <path
         id="path3234"
         d="m 132.48,87.41 c 1.91,-0.38 4.69,-0.24 5.42,1.96 1.65,1.94 -0.96,3.45 -2.53,4.16 -2.23,1.17 -4.7,-0.82 -6.02,-2.52 0.2,-1.68 1.41,-3.28 3.13,-3.6 z"
         inkscape:connector-curvature="0"
         style="fill:#c09300" />
      <path
         id="path3236"
         d="m 179.43,94.33 c 2.58,-0.88 4.52,1.61 6.46,2.85 -1.98,2.72 -5.07,3.97 -8.35,3.11 -0.59,1.71 -0.52,4.34 -2.84,4.6 -2.71,1.51 -5.01,-1 -6.64,-2.87 1.7,-2.67 4.55,-3.98 7.68,-3.31 0.57,-1.9 1.52,-3.97 3.69,-4.38 z"
         inkscape:connector-curvature="0"
         style="fill:#c09300" />
      <path
         id="path3238"
         d="m 393.39,95.19 c 4.55,-1.8 8.22,3.19 9.36,7.18 0.52,3.99 -0.79,8.06 -2.91,11.43 -7.02,9.89 -14.97,19.07 -22.45,28.61 -12.09,14.23 -23.26,29.27 -36.34,42.64 -6.01,6.36 -12.01,12.81 -16.77,20.19 -4.42,6.48 -8.44,13.68 -8.73,21.71 -0.69,8.11 2.54,15.75 3.91,23.61 2.51,9.27 2.51,18.93 3.03,28.45 -0.1,8.79 -2.04,17.96 -7.28,25.19 -3.27,4.58 -8.29,7.68 -13.61,9.29 -3.71,0.45 -7.49,0.42 -11.2,0.05 -7.82,-2.16 -14.55,-7.08 -20.49,-12.46 -6.71,-6.22 -10.42,-14.8 -13.96,-23.05 -3.21,-8.67 -5.67,-17.71 -6.08,-26.98 -0.25,-8.16 -0.25,-16.32 -0.65,-24.47 0.17,-3.45 -3.34,-5.18 -5.16,-7.63 -11.7,-13.71 -23.79,-27.15 -33.98,-42.06 -5.16,-6.08 -8.43,-13.41 -11.04,-20.88 -3.3,-9.17 -7.54,-18.63 -6.57,-28.59 1.38,-2.5 3.68,-4.42 6,-6.03 3.48,-0.23 5.45,3.95 6.41,6.79 2.97,14.1 4.5,28.64 9.81,42.14 2.69,7.06 8.51,12.09 13.26,17.73 8.3,9.69 16.69,19.3 25.13,28.87 1.9,2.4 4.21,4.56 5.58,7.33 0.82,15.78 -1.43,31.9 2.61,47.38 2.45,7.36 4.34,15.42 9.97,21.13 4.07,4.19 9.42,7.11 15.02,8.67 4.48,0.23 9,0.26 13.48,-0.02 5.5,-1.7 10.57,-5.67 12.48,-11.25 3.17,-7.2 2.68,-15.24 2.22,-22.9 -2.93,-14.63 -7.59,-29.22 -6.83,-44.31 0.17,-4.11 1.33,-8.27 3.59,-11.72 17.89,-23.03 37.38,-44.77 55.16,-67.89 4.23,-5.61 8.51,-11.32 11.28,-17.82 3.12,-7.08 6.56,-14.01 9.67,-21.08 1.48,-3.4 3.2,-6.82 6.08,-9.25 z"
         inkscape:connector-curvature="0"
         style="fill:#c09300" />
      <path
         id="path3240"
         d="m 126.7,112.7 c 4.53,-3.36 9.52,-6.04 14.49,-8.68 -4.34,15.41 -6.16,31.55 -12.68,46.31 4.63,-4.84 5.34,-11.79 8.45,-17.48 3.06,-0.22 6.12,-0.07 9.18,-0.05 -0.7,4.93 -2.13,10.01 -5.56,13.77 -2.74,2.93 -5.66,5.72 -8.87,8.14 -4.58,3.14 -10.18,4.07 -15.4,5.64 -2.15,0.44 -2.67,2.92 -3.76,4.51 4.47,-0.88 8.6,-2.87 12.95,-4.14 4.45,-1.17 8.4,-4.7 13.25,-3.77 3.75,1.81 2.51,9.09 -1.87,8.81 -2.91,0.52 -5.09,-1.81 -7.75,-2.38 -6.65,1.69 -12.88,4.73 -18.84,8.06 0.63,7.72 -3.49,14.5 -5.14,21.79 3.96,-4.85 5.09,-11.11 7.17,-16.83 2.26,-4.47 8.14,-2.27 12.09,-2.69 -1.48,10.03 -8.03,18.85 -16.63,24.02 -6.44,3.79 -13.42,6.68 -20.69,8.45 -0.52,2.3 -0.97,4.62 -1.27,6.96 6.64,-4.17 13.35,-8.23 20.02,-12.34 2.84,-1.62 6.63,1.65 5.74,4.69 -1.24,1.57 -2.85,2.77 -4.37,4.06 -2.21,-0.76 -4.56,-3.11 -6.96,-1.65 -4.78,2.46 -9.27,5.63 -12.93,9.59 -1.31,7.2 -1.9,14.59 -2.09,21.92 2.76,-5.5 2.89,-11.71 3.67,-17.67 1.83,-3.47 6.34,-2.5 9.55,-2.69 0.15,4.66 -0.66,9.36 -2.66,13.6 -3.3,8.44 -11.21,13.54 -17.34,19.75 -2.1,1.88 -0.96,5.02 -1.25,7.48 7.07,-6.28 12.63,-14 18.46,-21.36 4.71,-4.13 10.09,4.57 5.67,7.82 -2.65,0.41 -5.36,0.02 -8.02,0.41 -3.99,5 -8.55,9.73 -11.23,15.62 -1.39,3.07 0.17,6.33 0.87,9.37 1.58,5.68 1.35,11.83 3.86,17.25 0.92,-5.87 0.03,-11.83 -1.31,-17.56 -0.33,-1.88 -0.74,-3.97 0.12,-5.76 1.89,-2.59 5.18,-3.48 8.1,-4.37 3.03,8.64 2.75,18.32 -0.32,26.91 -2.88,7.37 -7.59,14.05 -13.54,19.28 0.5,2.18 1.07,4.35 1.85,6.45 5.39,-4.69 7.53,-11.83 11.92,-17.33 2.56,-3.64 3.78,-8.31 7.59,-10.97 3.71,-1.28 6.31,2.16 7.11,5.37 -0.85,4.75 -6.04,5.86 -10.13,5.41 -4.67,6.64 -9.4,13.58 -11.32,21.58 0.48,1.43 1.38,2.66 2.11,3.97 3.94,6.55 5.22,14.24 8.47,21.1 1.42,-8.29 -2.56,-16.01 -5.98,-23.26 2.44,-3.47 5.96,-6.01 9,-8.94 7.54,10.47 7.4,24.73 2.87,36.39 -2.1,6.1 -6.73,10.78 -9.91,16.27 -1.55,3.93 2.59,6.64 4.4,9.61 4.11,-5.7 5.07,-12.85 8.18,-19.05 2.49,-4.53 1.79,-10.58 5.92,-14.18 2.67,-2.7 7.78,-0.37 7.76,3.26 0.04,2.07 0.4,4.68 -1.63,5.98 -2.33,1.46 -5.16,1.73 -7.77,2.39 -1.59,7.65 -5.29,14.72 -6.49,22.47 -0.54,2.29 1.57,3.81 2.71,5.51 5.35,6.6 9.01,14.43 14.52,20.9 -0.77,-4.48 -2.67,-8.68 -4.66,-12.74 -2.01,-4.07 -5.62,-7.18 -7.23,-11.46 2.04,-3.34 4.51,-6.39 6.76,-9.57 6.95,4.66 10.61,12.96 11.3,21.1 0.62,7.55 1.28,15.45 -1.68,22.63 -1.34,4.47 -4.8,8.61 -3.94,13.5 1.33,3.47 4.79,5.12 7.82,6.79 0.32,-12.42 -0.16,-24.86 0.15,-37.27 1.48,-2.17 4.22,-3.85 6.91,-2.96 2.75,1.9 4.76,5.75 3.06,8.97 -1.36,2.4 -4.19,3.34 -6.5,4.59 -0.03,9.09 -0.16,18.5 2.47,27.27 7.76,3.05 14.36,8.28 20.92,13.3 1.54,1.2 3.26,2.13 5.06,2.91 -2.25,-4.2 -5.87,-7.45 -9.54,-10.39 -3.22,-2.6 -7.39,-4.02 -10.1,-7.2 -0.38,-4.55 1.05,-9 2.92,-13.09 5.15,1.88 9.65,5.07 13.27,9.18 14.46,16.31 16.05,41.82 5.38,60.54 -0.78,1.11 -2.35,1.05 -3.51,1.52 -9.1,2.43 -18.54,3.61 -27.96,3.5 -6.48,0.16 -12.67,-2.15 -18.25,-5.28 -6.33,-3.79 -13,-7.62 -17.63,-13.5 1.36,-4.82 8.06,-4.16 10.6,-8.04 1.71,-2.54 3.01,-5.36 5.11,-7.63 4.39,5.62 7.58,12.37 13.47,16.67 4.67,3.35 9.77,6.93 15.73,7.12 -3.31,-3.06 -7.52,-4.94 -10.78,-8.08 -6.36,-5.31 -10.5,-12.57 -14.31,-19.78 -7.5,-4.3 -16.69,-2.94 -24.99,-3.29 -3.02,-0.76 -3.15,3.04 -4.34,4.88 -0.56,1.96 -2.9,1.5 -4.45,1.53 -2.72,-0.15 -4.37,-3.33 -3.93,-5.81 2.32,-3.3 5.29,-6.52 9.27,-7.73 3.75,-1.2 7.74,-0.8 11.62,-0.81 5.35,0.1 10.29,2.64 15.63,2.85 -1.54,-2.93 -2.9,-5.96 -4.61,-8.8 -4.36,-1.46 -9.1,-1.01 -13.55,-2.17 -7.87,-1.78 -15.86,-4.08 -22.67,-8.57 -8.5,-5.91 -14.04,-14.87 -19.18,-23.64 -0.74,-1.47 -0.18,-3.19 -0.26,-4.75 3.35,-0.34 6.73,-0.06 10.08,-0.36 3.15,-1.86 5.69,-4.58 8.83,-6.47 2,9.03 3.82,18.62 9.78,26.01 2.15,2.52 4.61,4.93 7.82,6.03 -3.83,-5.73 -8.1,-11.37 -9.75,-18.22 -2.23,-5.12 -1.79,-10.8 -2.76,-16.13 -5.17,-4.48 -11.83,-6.67 -17.35,-10.63 -1.55,-1.16 -3.46,-1.57 -5.31,-1.96 -1.97,1.75 -3.39,5.33 -6.54,4.74 -3.1,-0.46 -4.3,-4.44 -3.82,-7.15 3.29,-2.96 7.78,-4.96 12.28,-4.23 8.88,2.14 16.31,7.72 23.85,12.58 -0.38,-2.42 -0.52,-4.91 -1.25,-7.25 -3.44,-2.38 -7.69,-3 -11.47,-4.64 -8.05,-3.68 -15.91,-8.33 -21.6,-15.25 -5.11,-6.92 -7.67,-15.24 -10.98,-23.08 2.41,-4.53 7.66,-1.6 11.55,-1.59 2.69,-1.22 5.16,-2.88 7.89,-4.05 0.42,5.52 0.69,11.09 1.59,16.56 2.03,5.65 3.64,12.21 9.1,15.6 -1.6,-4.58 -4.02,-8.9 -4.66,-13.77 -0.9,-7 0.05,-14.12 -0.71,-21.12 -3.23,-3.25 -7.03,-5.86 -10.51,-8.82 -2.34,-1.86 -4.58,-3.99 -7.42,-5.05 -2.69,0.75 -4.9,3.73 -7.88,2.81 -2.13,-1.97 -2.31,-6.13 0.27,-7.81 2.16,-2.47 5.67,-2 8.6,-1.84 9.01,2.89 14.11,11.33 21.64,16.43 -0.24,-1.56 0.24,-3.5 -1.19,-4.61 -5.53,-5.15 -12.45,-8.75 -17.26,-14.69 -7.66,-9.46 -10.62,-22.15 -9.78,-34.13 2.73,0.54 4.95,2.3 7.52,3.21 2.98,-0.14 5.61,-1.66 8.27,-2.84 0.59,7.22 -1.86,14.39 -0.53,21.58 0.85,3.97 2.37,7.83 4.77,11.14 -1.34,-8.85 -2.81,-18 -0.55,-26.83 0.58,-3.04 1.85,-6.71 -0.52,-9.31 -3.55,-4.63 -6.63,-9.86 -11.46,-13.29 -1.7,0.38 -3.26,1.19 -4.95,1.62 -1.25,-0.98 -2.85,-2.12 -2.76,-3.89 -0.11,-1.8 1.3,-3.15 2.11,-4.62 2.29,0.01 4.66,-0.32 6.9,0.34 5.14,3.83 8.95,9.09 12.75,14.18 0.83,1.2 2.06,2.01 3.22,2.88 -0.2,-1.68 0.09,-3.6 -1.22,-4.89 -5.07,-6.17 -10.25,-12.57 -12.81,-20.24 -1.58,-4.41 -0.94,-9.14 -1.11,-13.71 -0.16,-4.29 0.47,-8.59 1.79,-12.66 2.81,0.2 4.58,2.68 7.06,3.7 2.43,0.59 4.96,0.67 7.44,1.02 -3.08,5.95 -5.77,12.26 -6.55,18.98 -0.37,2.59 0.25,5.16 1.28,7.53 0.97,-6.05 1.42,-12.41 4.56,-17.83 1.39,-3.29 3.81,-6.19 4.72,-9.62 -1.57,-5.34 -3.72,-10.49 -6,-15.55 -2.05,-0.4 -4.09,-0.81 -6.13,-1.29 -0.91,-2.83 1.15,-6.7 4.44,-6.06 2.82,1.39 4.9,3.92 6.79,6.38 3.4,4.62 3.19,10.6 5,15.83 1.22,-1.62 3.52,-3.02 2.95,-5.34 -0.55,-3.4 -2.69,-6.22 -4.21,-9.23 -4.85,-9.21 -7.11,-20.27 -4.09,-30.43 1.21,-4.03 1.95,-8.37 4.28,-11.94 0.62,-1.24 1.98,-1.13 3.14,-1 1.83,1.52 2.85,3.84 4.84,5.17 2.55,0.94 5.29,1.13 7.93,1.71 -3.76,5.63 -8.33,10.91 -10.21,17.56 -0.84,3.5 -2.77,7.53 -0.18,10.74 1.12,-5.04 2.31,-10.19 4.99,-14.67 2.18,-3.71 5.61,-6.44 7.94,-10.02 1.83,-2.96 1.95,-6.64 1.26,-9.97 -0.76,-3.51 -1.16,-7.18 -2.78,-10.43 -1.38,-3.43 -6.78,-1.68 -7.79,-5.52 0.75,-2.5 3.45,-5.09 6.21,-4.08 2.74,1.14 4.81,3.46 6.44,5.88 3.07,6.41 2.45,13.73 3.89,20.54 1.09,-1.15 2.24,-2.27 3.13,-3.59 0.57,-1.7 -0.57,-3.28 -1.14,-4.8 -6.43,-12.81 -5.07,-29.02 2.8,-40.91 2.62,2.05 4.52,4.84 7.05,6.97 1.88,0.65 3.87,0.91 5.79,1.38 -5.24,7.06 -12.67,14.55 -10.66,24.2 0.96,-5.2 2.59,-10.39 5.91,-14.6 5.05,-6.01 11.5,-10.59 17.72,-15.3 m -16.57,40.85 c 6.52,-3.87 10.01,-11.24 9.56,-18.73 -6.71,3.48 -10.3,11.37 -9.56,18.73 M 84.5,199.16 c 8.14,-4.2 9.57,-14.1 10.25,-22.31 -7.52,4.34 -11.82,13.76 -10.25,22.31 m -16.8,48.35 c 2.23,-2.41 4.8,-4.82 5.51,-8.17 1.02,-4.68 0.75,-9.68 -1.19,-14.09 -3.2,6.85 -7.58,14.58 -4.32,22.26 m 2.17,55.68 c 1.09,-1.37 2.33,-2.66 3.15,-4.22 2.15,-7.09 -0.2,-14.59 -4.42,-20.43 -3.37,7.82 -2.75,17.19 1.27,24.65 m 5.74,32.28 c -1.31,3.73 -1.3,7.73 -1.04,11.62 0.68,5.6 4.33,10.21 8.53,13.72 3.31,-9 -0.19,-19.42 -7.49,-25.34 m 20.25,61.41 c -0.01,4 -0.66,8.22 1.2,11.94 2.11,5.36 5.68,11.31 11.99,12.03 0.04,-3.4 0.68,-6.97 -0.75,-10.18 -2.32,-5.94 -7.33,-10.24 -12.44,-13.79 m 40.5,57.9 c 1.93,10.3 11.8,17.93 21.95,19.06 -1.15,-4.6 -2.93,-9.35 -6.61,-12.53 -4.16,-3.93 -9.83,-5.62 -15.34,-6.53 z"
         inkscape:connector-curvature="0"
         style="fill:#c09300" />
      <path
         id="path3242"
         d="m 439.19,110.07 c 1.18,-1.54 2.14,-3.47 4.04,-4.24 2.89,-0.79 5.91,1.36 6.54,4.21 -1.23,1.89 -3.36,3.29 -5.65,3.32 -1.96,-0.51 -3.39,-2.08 -4.93,-3.29 z"
         inkscape:connector-curvature="0"
         style="fill:#c09300" />
      <path
         id="path3244"
         d="m 469.48,111.43 c -0.34,-1.43 -0.27,-2.91 -0.23,-4.37 11.57,6.45 22.35,14.55 31.13,24.52 2.5,4.18 3.58,9 5.59,13.41 0.52,-4.1 -0.25,-8.21 -2.19,-11.85 -1.93,-4.94 -6.13,-8.34 -9.25,-12.46 2.54,-1.38 5.34,-2.12 8.21,-2.36 0.74,-1.54 1.44,-3.09 2.16,-4.63 0.89,-0.07 2.67,-0.21 3.55,-0.28 2.55,4.96 4.96,10.09 6.13,15.57 0.84,7.1 0.33,14.5 -2.4,21.17 -0.89,2.44 -1.99,4.91 -2,7.55 0.45,1.48 1.56,2.61 2.43,3.87 0.72,-3.71 0.26,-7.51 0.8,-11.23 1.52,-4.74 2.74,-9.94 6.6,-13.42 1.68,-2.11 4.73,-1.16 7.08,-1.27 1.04,1.68 1.78,3.94 0.53,5.73 -1.79,1.03 -3.88,1.43 -5.64,2.53 -1.15,1.07 -1.34,2.7 -1.67,4.14 -0.92,4.97 -2.1,9.9 -2.6,14.93 1.45,2.82 4.29,4.6 6.12,7.16 2.37,3.35 4.98,6.64 6.43,10.53 0.6,2.94 0.43,5.98 0.7,8.96 2.37,-0.97 4.37,-2.81 3.48,-5.61 -2.06,-8.26 -6.89,-15.5 -11.8,-22.33 2.57,-0.49 5.14,-1.01 7.72,-1.49 1.8,-2.9 3.8,-5.78 6.89,-7.46 4.53,9.01 6.67,19.22 6.63,29.27 -1.95,8.56 -5.1,16.97 -9.94,24.33 -1.19,1.7 0.76,4.77 2.79,4.5 2.5,-6.1 3.5,-13.02 7.82,-18.24 2,-2.53 5.45,-2.15 8.31,-1.86 1.47,1.14 2.05,2.99 1.85,4.81 -1.64,2.33 -4.79,1.81 -7.15,2.82 -2.19,4.1 -3.95,8.44 -5.57,12.8 -1.88,4.79 2.45,8.73 4.08,12.89 2.94,5.04 2.19,11.24 4.99,16.33 1.79,-9.28 -1.27,-18.59 -5.75,-26.63 2.39,-0.07 4.82,0.12 7.21,-0.23 2.27,-1.7 4.44,-3.57 7.01,-4.82 2.13,5.87 2.06,12.15 2.26,18.3 0.84,8.8 -4.24,16.75 -9.2,23.58 -2.25,3.4 -6.25,5.85 -6.66,10.22 7.03,-4.8 9.91,-14.57 18.37,-17.52 3.55,-1.1 6.15,1.45 8.44,3.75 -0.99,1.6 -2,3.18 -3.05,4.73 -2.16,-0.19 -4.3,-0.67 -6.47,-0.62 -4.4,2.94 -7.08,7.68 -10.26,11.79 -1.12,1.76 -2.91,3.63 -2.27,5.9 1.22,6.64 2.5,13.36 2.24,20.15 -0.06,3.5 -1.35,6.82 -1.68,10.3 2.01,-2.79 4.07,-5.85 4.39,-9.36 0.36,-7.76 -0.28,-15.52 -0.52,-23.27 3.05,1.24 5.97,3.79 9.49,2.88 2.32,-0.83 4.45,-2.12 6.76,-3.01 0.54,2.12 1.54,4.28 1.04,6.52 -1.51,7.18 -3.14,14.38 -6.14,21.12 -4.69,9.04 -13.02,15.27 -21.28,20.85 -1.95,0.89 -1.28,3.15 -1.49,4.85 6.32,-5.08 11.73,-11.42 18.93,-15.36 3.75,0.02 8.47,-1.45 11.36,1.7 2.5,1.8 1.94,6.73 -1.27,7.37 -2.45,0.96 -4.31,-1.48 -6.51,-2.06 -4.83,1.48 -8.6,4.96 -12.53,7.96 -2.17,1.9 -4.57,3.84 -5.67,6.58 -0.38,6.26 0.05,12.56 -0.27,18.83 -0.51,5.62 -3.6,10.39 -6.09,15.29 5.38,-3.43 7.73,-9.76 9.22,-15.66 1.54,-5.82 1.55,-11.87 1.62,-17.85 4.22,1.44 7.92,6.63 12.74,4.45 1.48,-0.55 2.94,-1.17 4.42,-1.74 2.66,1.72 2.69,4.94 1.52,7.6 -3.41,8.59 -7.18,17.49 -14.08,23.91 -8.23,7.25 -18.59,11.35 -28.81,14.93 0.04,2.46 0.11,4.91 0.32,7.37 5.54,-4.69 11.65,-8.85 18.58,-11.17 4.57,-1.82 10.77,-2.44 14.4,1.56 2.19,1.64 1.19,4.63 1.36,6.95 -1.56,0.75 -3.13,1.47 -4.71,2.16 -1.46,-1.51 -2.83,-3.12 -4.44,-4.47 -5.06,0.42 -9.41,3.4 -13.87,5.55 -3.14,1.75 -6.97,3.08 -8.83,6.36 -1.76,7.47 -2.44,15.26 -5.55,22.36 -1.83,4.47 -5.93,7.48 -7.88,11.89 5.46,-1.88 8.59,-6.91 11.2,-11.71 4.4,-6.26 4.67,-14.15 6.91,-21.23 2.92,1.42 4.3,4.49 6.7,6.5 4.02,1.23 9.17,-0.98 12.36,2.53 0.85,2.57 -1.22,4.7 -2.44,6.73 -3.92,5.38 -7.26,11.25 -12.12,15.88 -4.4,4.66 -10.53,6.94 -16.16,9.71 -7.77,3.64 -16.44,4.18 -24.88,3.82 -1.86,3.52 -3.77,7.03 -5.16,10.77 3.52,-0.36 6.65,-2.17 10.08,-2.85 5.04,-0.25 10.09,0.03 15.14,0.04 4.21,-0.05 8.06,2.67 10.33,6.08 2.03,3.07 -0.26,8.77 -4.4,7.91 -3.41,0.42 -3.65,-3.85 -4.53,-6.17 -7.73,0.38 -15.64,-0.89 -23.21,1.1 -4.58,0.94 -6.26,5.8 -8.48,9.32 -3.46,6.58 -9.23,11.48 -15.15,15.77 -2.29,1.44 -4.56,2.94 -6.31,5.03 7.88,-1.54 15.03,-5.99 20.26,-12.03 4.08,-3.79 6.61,-8.84 10.46,-12.82 1.9,3.3 2.37,7.37 4.9,10.29 2.83,1.66 6.21,1.89 9.34,2.68 0.02,2.35 0.05,4.99 -2.23,6.37 -8.72,6.71 -18.12,13.52 -29.18,15.48 -9.23,0.14 -18.6,0.29 -27.59,-2.17 -3.17,-0.99 -7.44,-1.14 -8.99,-4.6 -2.9,-6.02 -4.61,-12.55 -5.88,-19.08 -0.16,-3.93 0.31,-7.86 0.17,-11.79 1.61,-15.41 10.36,-31.59 25.55,-37.18 1.62,4.36 3.11,9.04 2.65,13.74 -7.02,5.07 -15.81,9.3 -19.38,17.68 4.58,-1.62 7.52,-5.71 11.52,-8.24 4.63,-3.57 9.87,-6.2 14.71,-9.44 0.57,-1.41 0.47,-2.97 0.58,-4.45 0.18,-6.99 1.33,-13.96 0.82,-20.96 -2.18,-3.1 -6.64,-4.94 -6.82,-9.18 -0.62,-4.84 7.03,-7.89 9.88,-3.94 1.59,1.16 1.26,3.23 1.35,4.95 -0.14,10.98 0.24,21.99 -0.7,32.94 4.01,0.63 6.89,-2.77 8.44,-6.02 1.21,-5.15 -2.7,-9.4 -4.12,-14.05 -2.3,-4.96 -1.61,-10.5 -1.81,-15.79 -0.63,-10.15 3.02,-20.75 10.64,-27.67 2.96,3.23 5.47,6.84 7.64,10.64 -3.38,5.8 -7.47,11.22 -10.15,17.41 -0.94,1.82 -1,3.89 -1.01,5.91 3.71,-4.52 5.66,-10.15 9.12,-14.85 1.78,-3.47 5.58,-5.65 6.68,-9.47 0.84,-8.65 -3.21,-16.67 -6.59,-24.35 -3.43,-0.65 -7.96,-1.25 -8.93,-5.31 -2.26,-4.09 3.74,-10.24 7.38,-6.39 4.4,3.13 4.16,9.07 6.48,13.5 3.03,6.43 4.03,13.83 8.29,19.65 2.08,-2.87 6.65,-6.73 3.72,-10.4 -2.85,-4.83 -6.73,-9.04 -8.93,-14.24 -2.3,-6.54 -3.28,-13.52 -3.14,-20.44 -0.19,-5.52 1.47,-11.22 5.01,-15.49 0.33,-0.11 0.97,-0.33 1.29,-0.44 2.87,2.43 5.65,5.05 8.05,7.95 -2.12,7.54 -7.4,14.54 -6.17,22.75 3.75,-6.09 5.06,-13.28 8.56,-19.5 1.18,-2.66 3.61,-5.51 2.01,-8.52 -2.83,-6.31 -6.71,-12.08 -10.12,-18.09 -2.32,0.03 -4.63,0.07 -6.93,0.09 -1.93,-2.12 -4.36,-4.39 -3.4,-7.56 1.54,-2.23 4.98,-5.07 7.46,-2.51 3.53,2.83 4.18,7.68 7.02,11.07 4.15,5.17 6.83,11.32 11.1,16.41 1.16,-1.9 2.37,-3.88 2.55,-6.15 -2.74,-4.15 -7,-7.1 -9.45,-11.47 -3.03,-5.4 -5.69,-11.21 -6.18,-17.46 -0.24,-6.04 -0.54,-12.34 2.04,-17.98 2.84,1.68 5.87,3.19 8.28,5.49 0.24,7.69 -4.12,15.48 -1.3,23.08 2.59,-8.51 2.44,-17.69 6.15,-25.91 -3.74,-5.79 -8.2,-11.06 -12.5,-16.42 -3.23,-0.06 -7.53,1.67 -9.63,-1.72 -3.97,-3.63 3.14,-11.46 6.57,-6.57 5.31,6.06 10.06,12.62 15.49,18.58 1,1.58 3,1.05 4.58,1.28 -0.22,-1.58 0.07,-3.45 -1.21,-4.65 -4.12,-4.88 -9.77,-8.25 -13.56,-13.43 -4.81,-6.24 -8.19,-13.97 -7.79,-21.97 3.25,0.48 8.29,0.4 9.01,4.53 0.72,5.49 1.06,11.23 4,16.1 0.99,-7.69 -0.69,-15.35 -1.85,-22.91 -4.01,-3.1 -8.31,-5.81 -12.48,-8.68 -3.31,-2.35 -7.67,3.08 -10.58,-0.38 -3.11,-2.33 -0.19,-7.45 3.3,-6.56 7.69,2.95 13.59,9.36 21.4,12.05 -0.29,-2.35 -0.3,-5.23 -2.8,-6.37 -7.73,-3.92 -16.71,-5.73 -23.21,-11.82 -6.69,-4.82 -11.34,-12.21 -12.65,-20.36 3.52,-0.03 7.05,-0.02 10.59,-0.05 2.5,6.92 4.41,14.27 8.5,20.46 0.18,-4.87 -2.04,-9.37 -3.57,-13.87 -1.3,-3.04 -1.35,-6.42 -2.53,-9.48 -4.58,-4.11 -10.76,-5.85 -16.46,-7.82 -3.78,-1.93 -6.05,3.87 -9.94,2.81 -1.78,-1.69 -4.68,-4.29 -2.62,-6.83 1.34,-1.69 3.77,-3.9 6,-2.44 7.12,3.45 14.49,6.43 22.17,8.37 -0.35,-1.34 -0.79,-2.65 -1.33,-3.91 -5.31,-3.39 -12.36,-2.6 -17.38,-6.6 -7.17,-5.31 -14.39,-12.1 -15.68,-21.41 3.22,-0.07 6.45,-0.07 9.67,-0.04 1.9,5.7 3.22,12.01 7.55,16.45 -0.24,-4.87 -2.51,-9.28 -3.89,-13.88 -2.58,-8.79 -4.27,-17.81 -6.13,-26.78 m 19.89,25.19 c -0.89,7.09 1.56,16.39 9.37,18.4 -0.06,-7.22 -3.49,-14.18 -9.37,-18.4 m 25.55,42.68 c -0.19,4.42 -0.42,9.05 1.4,13.21 1.41,3.51 4.38,6 7.32,8.23 0.09,-3.16 0.37,-6.35 -0.04,-9.49 -1.57,-4.76 -4.84,-8.82 -8.68,-11.95 m 20.98,49.54 c -3.32,6.43 -0.87,14.16 3.16,19.66 3.43,0.73 2.21,-3.45 2.51,-5.52 0.38,-5.28 -1.71,-10.61 -5.67,-14.14 m 1.23,57.25 c -1.87,4.66 -4.13,9.95 -2.03,14.92 0.8,1.51 1.37,4.3 3.63,3.77 4.6,-7.28 2.51,-16.24 2.58,-24.34 -1.69,1.64 -3.33,3.41 -4.18,5.65 m -12.25,75.95 c 2.08,-0.27 4.13,-1.01 5.19,-2.97 4.76,-5.89 4.63,-13.84 4.06,-20.98 -8.94,4.09 -10.57,15.22 -9.25,23.95 m -24.05,50.69 c -1.63,3.47 -0.94,7.4 -0.9,11.1 9.67,-3.7 14.69,-15.37 12.79,-25.19 -4.93,3.75 -9.13,8.52 -11.89,14.09 m -40.65,48.5 c -5.34,3.24 -9.04,9.15 -9.34,15.41 4.66,-1.57 9.73,-2.91 13.28,-6.52 3.82,-3.54 6.53,-8.05 9.02,-12.56 -4.52,0.25 -9.1,1.25 -12.96,3.67 z"
         inkscape:connector-curvature="0"
         style="fill:#c09300" />
      <path
         id="path3246"
         d="m 393.22,128.22 c 2.81,-3.57 5.1,-7.54 8.09,-10.98 2.4,3.6 2.37,8.48 1.15,12.53 -1.06,4.26 -4.93,6.87 -7.65,10.05 -7.55,8.37 -14.33,17.8 -23.99,23.91 -1.03,-1.76 -2.61,-3.5 -2.24,-5.69 0.86,-2.12 2.42,-3.86 3.91,-5.56 7.11,-7.91 14.15,-15.89 20.73,-24.26 z"
         inkscape:connector-curvature="0"
         style="fill:#c09300" />
      <path
         id="path3248"
         d="m 378.44,162.45 c 8.25,-8.17 14.99,-17.79 23.76,-25.42 0.04,3.09 0.71,6.45 -1,9.24 -3.69,7.52 -10.36,12.93 -15.97,18.96 -4.46,4.9 -8.94,9.77 -13.48,14.59 -1.3,-2.97 -2.47,-6.26 -1.88,-9.54 2.53,-2.96 5.83,-5.1 8.57,-7.83 z"
         inkscape:connector-curvature="0"
         style="fill:#c09300" />
      <path
         id="path3250"
         d="m 186.12,158.01 c -1.81,-5.24 -0.34,-11.22 3.03,-15.51 3.24,5.02 4.15,11.07 7.18,16.18 1.5,2.76 3.3,5.35 4.98,8 2.71,4.41 3.67,9.6 4.43,14.64 -4.75,-1.96 -8.18,-5.89 -11,-10.04 -2.86,-4.44 -7.1,-8.07 -8.62,-13.27 z"
         inkscape:connector-curvature="0"
         style="fill:#c09300" />
      <path
         id="path3252"
         d="m 397.53,157.54 c 0.99,-1.08 2.48,-1.27 3.81,-1.68 0.29,2.13 0.78,4.41 -0.08,6.49 -1.86,3.93 -3.76,7.94 -6.79,11.12 -6.79,7.04 -13.8,13.86 -21.24,20.21 0.33,-4.14 -1.47,-9.26 1.98,-12.49 3.88,-4.43 8.35,-8.32 12.08,-12.89 3.1,-3.87 6.61,-7.39 10.24,-10.76 z"
         inkscape:connector-curvature="0"
         style="fill:#c09300" />
      <path
         id="path3254"
         d="m 349.2,181.18 c 6.14,-6.66 10.11,-15.19 17.55,-20.65 0.05,3.33 0.74,7.03 -1.15,10.01 -2.8,4.43 -6.22,8.43 -9.9,12.15 -4.13,4.14 -7.9,8.65 -12.39,12.41 -0.19,-2.27 -0.53,-4.56 -0.2,-6.83 1.84,-2.52 4.11,-4.69 6.09,-7.09 z"
         inkscape:connector-curvature="0"
         style="fill:#c09300" />
      <path
         id="path3256"
         d="m 183.89,166.2 c 4.57,3.34 8.06,7.93 12.67,11.26 3.46,2.73 7.82,5.27 8.87,9.91 0.74,3.88 0.22,7.88 0,11.8 -4.28,-2.41 -7.94,-5.86 -10.68,-9.92 -3.64,-5.12 -8.66,-9.36 -11.01,-15.3 -0.43,-2.57 -0.08,-5.19 0.15,-7.75 z"
         inkscape:connector-curvature="0"
         style="fill:#c09300" />
      <path
         id="path3258"
         d="m 355.34,187.34 c 4.5,-4.25 8.39,-9.12 13.12,-13.13 0.18,4.15 -0.82,8.38 -3.85,11.38 -6.67,7.29 -14,13.99 -21.53,20.39 0.14,-2.44 -0.57,-5.13 0.49,-7.4 3.38,-4.28 8,-7.34 11.77,-11.24 z"
         inkscape:connector-curvature="0"
         style="fill:#c09300" />
      <path
         id="path3260"
         d="m 379.57,191.59 c 6.75,-5.13 12.28,-11.65 18.98,-16.84 0.38,3.3 0.43,6.77 -0.89,9.88 -2.1,4.34 -5.86,7.49 -9.13,10.9 -5.64,5.8 -11.54,11.36 -17.8,16.49 -0.05,-4.22 -0.94,-8.65 0.21,-12.76 2.42,-3.02 5.66,-5.23 8.63,-7.67 z"
         inkscape:connector-curvature="0"
         style="fill:#c09300" />
      <path
         id="path3262"
         d="m 210.62,181.27 c 7.13,9.96 15.07,19.32 22.21,29.26 -8.72,-0.38 -14.48,-7.69 -19.02,-14.27 -2.55,-4.48 -6.68,-9.83 -3.19,-14.99 z"
         inkscape:connector-curvature="0"
         style="fill:#c09300" />
      <path
         id="path3264"
         d="m 182.84,184.02 c 5.35,4.68 9.99,10.11 14.93,15.2 2.25,2.38 5.15,4.26 6.77,7.17 0.18,4.07 1.11,8.1 1,12.18 -0.58,0.03 -1.74,0.11 -2.32,0.14 -6.11,-4.43 -12.1,-9.22 -16.7,-15.27 -4.57,-5.32 -3.88,-12.9 -3.68,-19.42 z"
         inkscape:connector-curvature="0"
         style="fill:#c09300" />
      <path
         id="path3266"
         d="m 352.35,202.35 c 5.77,-5.36 11.16,-11.13 17.1,-16.31 0,3.29 0.99,7.18 -1.57,9.83 -7.52,8.3 -14.81,17.07 -24,23.6 -0.44,-2.36 -1.03,-4.75 -0.79,-7.16 2.7,-3.64 6.11,-6.71 9.26,-9.96 z"
         inkscape:connector-curvature="0"
         style="fill:#c09300" />
      <path
         id="path3268"
         d="m 322.28,217.64 c 1.94,-9.87 9.97,-16.78 16.23,-24.08 0.4,4.17 -0.28,8.61 -3.02,11.93 -3.78,4.66 -8.34,8.67 -13.21,12.15 z"
         inkscape:connector-curvature="0"
         style="fill:#c09300" />
      <path
         id="path3270"
         d="m 382.27,206.27 c 4.95,-4.02 8.84,-9.2 14.01,-12.93 0.47,8.35 -6.11,14.14 -10.76,20.18 -5.32,5.28 -10.75,10.53 -16.68,15.11 -0.01,-4.21 -1.3,-9.35 2.19,-12.61 3.64,-3.37 7.64,-6.34 11.24,-9.75 z"
         inkscape:connector-curvature="0"
         style="fill:#c09300" />
      <path
         id="path3272"
         d="m 209.44,194.45 c 3.83,4.23 7.16,8.9 11.15,12.98 3.6,3.83 9.5,5.12 11.95,10.09 1.43,2.05 0.38,6.48 -2.63,5.91 -4.86,-0.65 -8.34,-4.46 -11.29,-8.05 -2.82,-3.51 -6.34,-6.55 -8.35,-10.64 -1.66,-3.18 -0.99,-6.87 -0.83,-10.29 z"
         inkscape:connector-curvature="0"
         style="fill:#c09300" />
      <path
         id="path3274"
         d="m 350.12,218.12 c 5.86,-5.57 10.92,-12.04 17.5,-16.81 0.27,9.93 -8.32,16.32 -14.66,22.64 -3.49,2.74 -6.63,7.01 -11.53,6.73 0.13,-5.68 5.18,-8.85 8.69,-12.56 z"
         inkscape:connector-curvature="0"
         style="fill:#c09300" />
      <path
         id="path3276"
         d="m 324.81,219.81 c 3.9,-4.51 7.56,-9.4 12.45,-12.89 0.83,-0.12 2.49,-0.38 3.32,-0.51 -1.11,3.02 -2.52,6 -4.95,8.18 -5.11,4.79 -9.29,10.58 -15.13,14.53 -0.85,-3.85 2.14,-6.61 4.31,-9.31 z"
         inkscape:connector-curvature="0"
         style="fill:#c09300" />
      <path
         id="path3278"
         d="m 379.45,224.46 c 5.83,-5.7 10.55,-12.48 16.93,-17.63 -0.14,9.03 -5.89,16.53 -11.33,23.22 -3.83,4.49 -7.55,9.22 -12.36,12.7 -2.6,0.84 -4.25,-1.72 -5.12,-3.75 2.58,-5.83 7.48,-10.11 11.88,-14.54 z"
         inkscape:connector-curvature="0"
         style="fill:#c09300" />
      <path
         id="path3280"
         d="m 185.16,209.63 c 3.73,1.38 7.02,3.69 10.22,6.02 3.76,2.81 7.65,5.59 10.56,9.33 2.62,3.78 2.75,8.58 3.43,12.97 -5.54,-1.63 -9.8,-5.59 -14.18,-9.12 -5.61,-4.8 -9.03,-11.97 -10.03,-19.2 z"
         inkscape:connector-curvature="0"
         style="fill:#c09300" />
      <path
         id="path3282"
         d="m 208.46,211.34 c 4.39,2.54 7.08,7.12 11.42,9.74 3.87,2.38 7.98,4.6 10.87,8.2 1.94,1.96 1.79,4.87 2.21,7.39 -2.7,-0.06 -5.61,-0.02 -7.86,-1.76 -3.29,-2.38 -6.55,-4.81 -9.88,-7.13 -5.21,-3.57 -7.83,-10.25 -6.76,-16.44 z"
         inkscape:connector-curvature="0"
         style="fill:#c09300" />
      <path
         id="path3284"
         d="m 343.73,234.95 c 8.14,-6.51 16.02,-13.31 23.83,-20.21 1.44,6.54 -3.75,11.67 -7.96,15.86 -4.45,4.16 -9.27,9.48 -15.94,8.99 0.01,-1.55 0.04,-3.1 0.07,-4.64 z"
         inkscape:connector-curvature="0"
         style="fill:#c09300" />
      <path
         id="path3286"
         d="m 237.67,216.39 c 6.07,3.58 9.46,10.36 9.76,17.28 -4.89,-4.48 -11.05,-9.87 -9.76,-17.28 z"
         inkscape:connector-curvature="0"
         style="fill:#c09300" />
      <path
         id="path3288"
         d="m 236.72,225.59 c 5.3,5.13 10.45,11.25 11.7,18.75 -4.95,-1.76 -9.35,-5.56 -11.06,-10.63 -1.02,-2.58 -0.58,-5.42 -0.64,-8.12 z"
         inkscape:connector-curvature="0"
         style="fill:#c09300" />
      <path
         id="path3290"
         d="m 334.62,228.63 c 1.67,-1.24 3.76,-1.54 5.75,-1.96 -0.76,3.09 -1.94,6.17 -4.38,8.33 -4.31,4.18 -8.66,9.16 -14.78,10.51 -0.32,-0.65 -0.98,-1.95 -1.31,-2.6 4.02,-5.51 8.94,-10.58 14.72,-14.28 z"
         inkscape:connector-curvature="0"
         style="fill:#c09300" />
      <path
         id="path3292"
         d="m 344.53,245.94 c 7.51,-4.64 13.88,-10.8 20.78,-16.23 1.4,4.61 -0.56,9.48 -3.75,12.84 -4.27,4.68 -9.38,9.13 -15.65,10.73 -0.51,-2.44 -1,-4.88 -1.38,-7.34 z"
         inkscape:connector-curvature="0"
         style="fill:#c09300" />
      <path
         id="path3294"
         d="m 192.8,232.05 c 6.32,3.12 11.75,7.78 17.14,12.24 1.3,3.98 1.07,8.23 0.91,12.35 -3.31,-1.67 -6.4,-3.85 -8.62,-6.87 -3.98,-5.39 -7.64,-11.22 -9.43,-17.72 z"
         inkscape:connector-curvature="0"
         style="fill:#c09300" />
      <path
         id="path3296"
         d="m 211.76,231.08 c 4.29,1.45 8.13,3.9 12.1,6.02 2.59,1.58 5.45,3.11 7.11,5.75 0.83,2.96 0.86,6.09 1.34,9.12 -6.6,0.53 -11,-4.91 -15.59,-8.7 -3.58,-2.96 -4.7,-7.76 -4.96,-12.19 z"
         inkscape:connector-curvature="0"
         style="fill:#c09300" />
      <path
         id="path3298"
         d="m 327.61,245.63 c 4.35,-3.3 7.83,-7.68 12.63,-10.41 0.56,3.41 -0.02,6.98 -2.6,9.46 -3.56,4.02 -8.12,7.02 -12.74,9.69 -1.24,-0.27 -2.47,-0.61 -3.68,-1 1.53,-3.03 3.71,-5.66 6.39,-7.74 z"
         inkscape:connector-curvature="0"
         style="fill:#c09300" />
      <path
         id="path3300"
         d="m 234.21,236.78 c 3.14,1.35 5.49,3.84 7.45,6.57 2.53,3.51 6.54,6.8 5.67,11.62 -4.31,-1.29 -7.4,-4.84 -10.09,-8.25 -2.08,-2.88 -3.69,-6.3 -3.03,-9.94 z"
         inkscape:connector-curvature="0"
         style="fill:#c09300" />
      <path
         id="path3302"
         d="m 349,257.01 c 6.21,-4.49 12,-9.52 17.98,-14.31 -0.22,4.6 -0.61,9.75 -4.05,13.21 -4.54,4.94 -10.26,9.59 -17.14,10.4 -0.33,-3.39 0.01,-7.34 3.21,-9.3 z"
         inkscape:connector-curvature="0"
         style="fill:#c09300" />
      <path
         id="path3304"
         d="m 326.7,256.78 c 4.46,-4.27 8.83,-8.84 14.47,-11.57 0.79,2.68 1.84,6.13 -0.72,8.25 -4.79,4.42 -10.14,8.37 -16.07,11.12 -0.24,-2.82 0.25,-5.73 2.32,-7.8 z"
         inkscape:connector-curvature="0"
         style="fill:#c09300" />
      <path
         id="path3306"
         d="m 213.63,246.28 c 4.46,1.5 8.07,4.52 11.82,7.25 3.99,2.81 7.31,6.82 8.1,11.78 -8.31,-1.56 -16.24,-6.51 -19.79,-14.4 -0.14,-1.54 -0.18,-3.08 -0.13,-4.63 z"
         inkscape:connector-curvature="0"
         style="fill:#c09300" />
      <path
         id="path3308"
         d="m 324.5,272.4 c 3.85,-7.27 10.74,-12.42 17.72,-16.46 -0.52,2.67 -0.32,5.81 -2.38,7.89 -3.02,3.41 -6.77,6.13 -10.82,8.17 -1.38,0.81 -3.02,0.41 -4.52,0.4 z"
         inkscape:connector-curvature="0"
         style="fill:#c09300" />
      <path
         id="path3310"
         d="m 364.9,257.93 c 1.14,-0.83 2.37,-1.52 3.59,-2.23 0.1,1.96 0.32,3.94 0.09,5.9 -4.21,8.02 -12.2,13.07 -20.56,15.94 -0.58,-0.41 -1.75,-1.22 -2.33,-1.63 -0.02,-1.71 -0.03,-3.42 -0.04,-5.13 6.22,-4.59 13.14,-8.12 19.25,-12.85 z"
         inkscape:connector-curvature="0"
         style="fill:#c09300" />
      <path
         id="path3312"
         d="m 215.36,260.4 c 6.58,1.59 12.04,5.92 17.22,10.06 2.63,1.9 2.51,5.41 3.27,8.24 -7.15,-1.45 -14.78,-4.18 -19.19,-10.34 -1.92,-2.2 -1.15,-5.31 -1.3,-7.96 z"
         inkscape:connector-curvature="0"
         style="fill:#c09300" />
      <path
         id="path3314"
         d="m 326.47,279.84 c 2.8,-6.81 10.01,-9.97 15.29,-14.55 2.14,3.51 -0.55,7 -2.98,9.5 -3.27,3.18 -7.8,4.83 -12.31,5.05 z"
         inkscape:connector-curvature="0"
         style="fill:#c09300" />
      <path
         id="path3316"
         d="m 355.36,276.33 c 4.93,-2.32 8.95,-6.28 14.19,-8.01 -0.18,2.16 0.77,4.73 -0.72,6.58 -5.27,7.79 -14.74,11.08 -23.45,13.33 -0.31,-2.08 -0.56,-4.16 -0.73,-6.25 3.43,-2.13 7.08,-3.88 10.71,-5.65 z"
         inkscape:connector-curvature="0"
         style="fill:#c09300" />
      <path
         id="path3318"
         d="m 358.6,285.51 c 4.37,-1.97 8.11,-5.12 12.66,-6.69 0.11,2.88 0.32,6.25 -2.21,8.25 -6.78,6.37 -15.8,11.2 -25.32,10.81 0.16,-1.81 0.16,-3.66 0.69,-5.4 4.29,-3.12 9.51,-4.55 14.18,-6.97 z"
         inkscape:connector-curvature="0"
         style="fill:#c09300" />
      <path
         id="path3320"
         d="m 220.22,286.39 c 5.67,-0.11 10.9,2.39 16.17,4.13 4.22,1.31 7.28,4.62 9.94,7.99 -5.95,0.42 -12.29,0.74 -17.76,-2.05 -4.17,-1.91 -6.24,-6.28 -8.35,-10.07 z"
         inkscape:connector-curvature="0"
         style="fill:#c09300" />
      <path
         id="path3322"
         d="m 323.51,298.88 c 5.12,-2.2 10.74,-1.61 16.16,-1.51 0.02,1.03 0.03,2.06 0.06,3.1 -5.31,1.4 -10.77,2.17 -16.25,2.12 0,-0.93 0.02,-2.78 0.03,-3.71 z"
         inkscape:connector-curvature="0"
         style="fill:#c09300" />
      <path
         id="path3324"
         d="m 229.38,301.53 c 5.79,-0.39 11.52,1.22 16.69,3.73 -4.61,0.99 -9.34,2.06 -12.94,5.33 -2.13,-2.63 -4.12,-5.49 -3.75,-9.06 z"
         inkscape:connector-curvature="0"
         style="fill:#c09300" />
      <path
         id="path3326"
         d="m 343.15,308.57 c 8.43,-0.37 15.33,-6.82 23.75,-6.84 0.47,4.48 -3.59,7.43 -7.42,8.53 -6.88,2.21 -14.13,3.85 -21.39,3.47 0.68,-2.48 1.95,-5.48 5.06,-5.16 z"
         inkscape:connector-curvature="0"
         style="fill:#c09300" />
      <path
         id="path3328"
         d="m 320.89,306.94 c 3.06,-3.44 7.93,-2.56 12.02,-2.5 2.26,-0.13 3.91,1.76 4.84,3.62 -5.21,3.18 -12.2,3 -16.86,-1.12 z"
         inkscape:connector-curvature="0"
         style="fill:#c09300" />
      <path
         id="path3330"
         d="m 226.64,323.64 c 3.43,-5.25 7.32,-10.88 13.69,-12.7 -1.41,3.02 -3.34,5.74 -4.85,8.7 3.89,0.02 7.01,-2.4 10.49,-3.69 10.73,-2.34 22.45,-1.42 32.21,3.86 5.58,2.55 10.23,6.78 15.94,9.11 2.35,1.04 4.83,1.76 7.14,2.91 4.68,2.37 7.19,7.74 12.2,9.57 4.49,0.58 9.04,-0.3 13.54,0.15 3.7,1.81 5.24,5.96 6.66,9.55 -1.14,1.04 -2.29,2.06 -3.44,3.09 3.63,1.83 7.4,3.91 9.17,7.8 -4.74,-1.4 -8.85,-4.78 -13.94,-4.88 3.52,5.97 12.05,5.62 15.34,11.71 -7.31,1.17 -11.87,-5.84 -18.45,-7.38 0.48,1.49 0.56,3.49 2.39,3.99 6.72,3.36 14.14,5.89 19.62,11.23 2.56,2.35 2.83,6.02 3.62,9.21 -4.57,-0.11 -9.43,-0.19 -13.57,-2.32 -3.35,-2.33 -6.6,-6.11 -11.16,-4.68 -3.51,2.67 -4.49,7.51 -8.19,10.02 -4,-2.09 -5.65,-7.19 -10.41,-8.05 2.27,6.09 8.44,10.98 7.3,18.03 -0.35,3.42 -4.29,4.61 -7.19,3.53 -2.13,-1.98 -3.73,-4.54 -4.61,-7.31 -2.45,-8.05 -1.63,-16.77 -4.56,-24.68 -0.6,-1.73 -2.9,-1.2 -4.29,-1.12 -0.5,2.52 1.69,4.41 2.26,6.73 -0.46,4.1 -3.74,7.53 -3.36,11.75 2.24,8.73 12.05,13.36 13.06,22.65 0.35,6.24 1.75,12.94 -0.76,18.91 -3.91,2.97 -8.66,4.6 -12.6,7.55 -4.47,3.03 -6.47,8.3 -9.91,12.27 -0.98,-0.89 -1.86,-1.86 -2.75,-2.82 -2.43,0.62 -4.93,0.93 -7.44,0.84 3.23,-2.27 7.3,-3.34 9.99,-6.35 2.89,-3.11 5.45,-6.61 8.99,-9.05 3.51,-2.38 7.04,-4.91 9.65,-8.3 0.8,-6.29 0.66,-13.36 -3.15,-18.75 -2.33,-3.35 -5.09,-6.43 -6.88,-10.13 -1.13,-3.79 1.44,-9.66 -3.32,-11.54 -6.4,-2.55 -10.95,-7.94 -14.73,-13.48 -3.21,-5.96 -5,-12.71 -5.55,-19.44 -0.28,-1.76 -1.13,-3.34 -1.85,-4.94 -1.17,2.66 -1.78,5.5 -2.51,8.3 -6.72,-2.42 -10.92,-8.4 -14.21,-14.41 -0.93,7.01 -7.48,10.71 -12.78,14.31 -2.76,0.58 -6.47,1.12 -8.5,-1.36 -1.79,-1.79 -3.1,-3.98 -4.55,-6.03 -1.62,3.24 -3.79,6.2 -6.84,8.23 1.01,-3.95 2.43,-8.14 6.34,-10.1 -3.3,-3.63 -7.48,-6.63 -9.52,-11.23 1.02,-3.91 3.87,-7.07 6.66,-9.88 2.62,-2.68 5.75,-5.08 9.54,-5.72 -2.69,5.69 -8.57,8.85 -12.32,13.76 4.88,-0.8 9.66,-3.17 12.39,-7.42 m 11.98,9.09 c -1.24,4.85 -6.1,6.93 -9.98,9.28 0.02,1.77 0.05,3.54 0.12,5.32 3.41,-2.74 6.71,-5.7 9.36,-9.2 3.02,-4.5 4.93,-9.7 8.24,-14 5.44,-1.45 10.72,1.75 15.99,2.68 0,-0.95 0,-2.86 0.01,-3.82 -4.14,-2.18 -8.68,-3.74 -13.41,-3.55 -5.46,2.37 -8.67,7.81 -10.33,13.29 m -11.4,-0.25 c 0.06,-2.25 0.2,-4.5 0.22,-6.75 -3.31,4.64 -6.15,9.59 -9.78,14.01 9.08,0.44 17.92,-5.55 20.44,-14.38 -3.92,1.92 -7.25,4.75 -10.88,7.12 m 72.96,12.05 c 2.22,7.04 8.95,11.3 14.89,15 -2.5,-6.96 -9,-11.14 -14.89,-15 m -22.86,3.3 c 1.38,7.67 7.93,12.7 13.87,16.97 4.38,2.88 7.95,6.78 12.28,9.72 -1.84,-6.3 -7.97,-9.41 -12.7,-13.27 -5.26,-3.69 -8,-9.96 -13.45,-13.42 m -8.65,7.75 c 0.01,0.83 0.01,2.49 0.02,3.32 2.05,5.02 5.15,9.58 9.18,13.23 3.69,3.31 6.44,7.92 11.2,9.83 -0.09,-1.89 0.01,-3.8 -0.39,-5.65 -3.35,-3.46 -8.12,-5.08 -11.51,-8.49 -3.9,-3.33 -4.52,-8.96 -8.5,-12.24 m 30.36,-0.14 c 1.04,3.58 3.98,6.07 6.94,8.11 -1.24,-3.47 -3.9,-6.15 -6.94,-8.11 m -24.57,3.11 c 0.9,5.5 5.63,9.23 10.31,11.61 -2.3,-4.72 -6.04,-8.61 -10.31,-11.61 z"
         inkscape:connector-curvature="0"
         style="fill:#c09300" />
      <path
         id="path3332"
         d="m 356.75,313.89 c 2.91,-0.73 5.93,-0.73 8.91,-0.63 -1.98,4.5 -6.67,7.35 -11.58,7.01 -5.76,-0.25 -11.65,0.63 -17.31,-0.75 -1.66,-0.14 -2.58,-1.59 -3.65,-2.65 7.98,0.09 15.88,-1.19 23.63,-2.98 z"
         inkscape:connector-curvature="0"
         style="fill:#c09300" />
      <path
         id="path3334"
         d="m 319.32,324.55 c 5.19,-0.54 9.81,2.3 14.78,3.28 2.54,0.98 6.39,0.95 7.35,4.03 -4.58,1.94 -10.63,2.83 -14.72,-0.62 -2.8,-1.83 -5.2,-4.19 -7.41,-6.69 z"
         inkscape:connector-curvature="0"
         style="fill:#c09300" />
      <path
         id="path3336"
         d="m 221.65,336.73 c 1.15,-1.3 1.92,-3.26 3.77,-3.68 0.66,1.07 1.3,2.15 1.91,3.26 -1.89,0.21 -3.79,0.34 -5.68,0.42 z"
         inkscape:connector-curvature="0"
         style="fill:#c09300" />
      <path
         id="path3338"
         d="m 323.67,391.66 c 1.19,-1.41 3.17,-1.13 4.81,-1.44 10.69,11.07 21.22,22.39 33.23,32.06 6,5.09 11.97,10.32 18.87,14.18 2.67,1.41 4.77,3.6 6.61,5.96 -4.17,0.42 -8.35,0.25 -12.53,0.29 -3.35,-4.98 -6.52,-10.29 -11.31,-14.04 -5.38,-4.26 -9.66,-9.72 -15.03,-13.98 -5.15,-4.14 -9.08,-9.6 -14.41,-13.53 0.12,3.94 2.31,7.31 4.52,10.42 8.39,10.91 21.74,17.93 27.22,31.02 -2.19,0.06 -4.37,0.1 -6.55,0.12 -4.89,-6.13 -8.84,-12.95 -13.81,-19.02 -2.23,-2.47 -4.68,-4.89 -7.74,-6.29 0.83,4.72 4.01,8.48 6.73,12.27 3.33,4.05 6.18,8.48 8.97,12.92 -2.34,0.07 -4.68,0.22 -7.01,0.05 -2.2,-2.66 -3.2,-6.06 -4.85,-9.04 -4.55,-8.3 -8.76,-16.85 -14.58,-24.37 -0.72,0.01 -2.18,0.03 -2.91,0.04 2.55,6.81 5.29,13.6 9.01,19.87 2.84,4.52 5.96,8.94 7.79,14 -1.2,0.28 -2.41,0.52 -3.62,0.73 -3.42,-6 -3.88,-14.43 -10.75,-17.8 0.78,6.06 4.23,11.49 4.41,17.66 -4.23,0.89 -5.6,-3.36 -7.18,-6.33 -3.09,-6.27 -5.7,-12.8 -9.43,-18.72 -0.14,8.22 2.21,16.13 5.02,23.75 -3.85,-2.12 -6.8,-5.82 -11.17,-6.93 -7.99,2.72 -14.88,7.88 -22.29,11.84 1.71,-2.75 3.75,-5.34 6.31,-7.35 4.73,-3.28 10.52,-5.11 14.59,-9.3 0.33,-6.51 -0.54,-13.12 1.01,-19.53 2.11,2.31 4,4.81 6.04,7.19 0.46,-6.21 -0.56,-12.55 1.14,-18.63 1.07,1.12 2.14,2.26 3.21,3.4 1.29,-4.07 2.44,-8.46 5.68,-11.47 z"
         inkscape:connector-curvature="0"
         style="fill:#c09300" />
      <path
         id="path3340"
         d="m 334.8,389.43 c 6.37,0.57 12.65,1.93 18.98,2.82 10.37,2.56 17.4,11.21 25.67,17.31 7.6,7.19 14.99,14.65 21.64,22.75 -8.47,-2.58 -16.2,-6.91 -23.41,-11.97 -10.05,-5.28 -17.41,-14.17 -26.65,-20.55 0.42,2.55 1.35,5.05 3.23,6.9 9.64,10.43 21.93,17.84 34.05,25.01 5.78,3.42 12.67,6 16.4,11.92 -5.64,-0.35 -10.47,-3.55 -15.42,-5.93 -11.66,-6.59 -22.34,-14.77 -32.46,-23.51 -7.73,-7.89 -14.85,-16.36 -22.03,-24.75 z"
         inkscape:connector-curvature="0"
         style="fill:#c09300" />
      <path
         id="path3342"
         d="m 425.47,438.61 c 6.04,-1.45 8.94,9.37 3.29,11.59 -3.79,1.68 -8.13,-2.29 -7.85,-6.17 -0.28,-2.65 2.33,-4.61 4.56,-5.42 z"
         inkscape:connector-curvature="0"
         style="fill:#c09300" />
      <path
         id="path3344"
         d="m 179.77,439.71 c 2.37,-0.81 5.79,-1.27 7.27,1.28 3.08,4.07 -0.72,10.32 -5.72,9.67 -2.37,-1.04 -3.57,-3.62 -5.09,-5.58 1.07,-1.85 1.95,-3.89 3.54,-5.37 z"
         inkscape:connector-curvature="0"
         style="fill:#c09300" />
      <path
         id="path3346"
         d="m 207.01,445.39 c 18.97,-0.16 37.94,0.04 56.9,0.06 0.39,3.37 -0.2,7.62 2.67,10.05 3.18,0.96 6.68,0.97 9.35,3.25 5.54,-4.14 11.61,-7.58 18.14,-9.87 4.85,-1.96 9.98,-4.72 15.35,-3.19 3.31,1.58 6.6,3.84 10.48,3.22 3.04,0.41 4.26,-3.59 7.21,-3.52 24.79,-0.22 49.58,0.14 74.37,0.03 -5.01,8.97 -7.95,19.58 -5.5,29.8 1.94,8.65 6.23,16.54 8.46,25.1 -64,0.11 -127.99,0.09 -191.99,0.01 5.17,-9.58 11.19,-20.2 8.64,-31.5 -2.65,-8.81 -7.69,-16.85 -14.08,-23.44 m 94.16,10.85 c -1.61,5.46 -3.75,10.85 -7.17,15.45 -12.9,0.1 -25.9,-0.15 -38.57,-2.84 -5.33,-0.99 -11.41,-2.9 -16.34,0.38 -2.66,1.31 -2.64,4.72 -3.64,7.15 2.41,-1.1 4.72,-3.12 7.53,-2.73 9.65,2.08 19.1,5.24 28.96,6.28 7.91,1.26 15.96,0.77 23.94,0.67 9.46,-1.56 20.46,-2.75 26.56,-11.16 0.38,-3.62 0.94,-8.35 -2.43,-10.78 -5.97,-1.2 -11.4,1.63 -16.37,4.55 0.31,-3.94 3.59,-6.32 5.66,-9.32 0.47,-2.3 -0.41,-4.5 -1.2,-6.59 -2.73,2.57 -5.89,5.17 -6.93,8.94 m 60.29,-3.78 c -5.79,4.95 -6.59,13.17 -11.04,19.08 -7.6,0.98 -15.45,-0.81 -22.95,1.07 -7.83,3.04 -10.77,11.91 -17.86,15.96 -2.54,1.5 -5.16,2.87 -7.54,4.62 3.41,-0.01 7.11,0.86 10.29,-0.79 7.65,-3.2 12.06,-10.72 18.28,-15.83 3.17,-0.6 6.3,0.47 9.4,1.01 4.17,0.88 8.5,1.05 12.72,0.51 4.36,-3.14 6.09,-8.42 8.08,-13.17 1.93,-5.45 5.23,-10.26 7.31,-15.65 -2.39,0.67 -4.87,1.41 -6.69,3.19 m 6.25,12.23 c -1.48,6.18 -3.19,12.33 -4.13,18.62 3.99,-2.48 6.14,-6.84 7.71,-11.1 2.56,-7.51 3.71,-15.39 5.13,-23.16 -4.38,4.18 -7.31,9.78 -8.71,15.64 m -32.97,-9.52 c 0.84,1.5 2.05,2.75 3.17,4.06 1.54,-1.34 3.16,-2.62 4.45,-4.21 -0.33,-1.51 -1.09,-2.92 -2.41,-3.75 -2.21,0.52 -3.74,2.31 -5.21,3.9 m -96.31,0.24 c -1.32,0.6 -2.85,1.33 -3.48,2.74 -1.08,2.41 2.25,3.27 4.05,3.15 4.02,-0.19 8.39,1.94 11.75,-1.23 0.03,-1.39 0.05,-2.78 0.07,-4.17 -2.28,0.2 -4.53,0.58 -6.8,0.77 -1.87,-0.39 -3.61,-2.25 -5.59,-1.26 m 89.3,6.3 c 1.73,1.35 3.38,2.86 5.37,3.85 1.85,-0.44 3.69,-1.1 5.54,-0.24 2.45,1 4.59,-0.99 6.72,-1.89 -0.55,-2.02 -1.62,-3.79 -2.99,-5.33 -1.41,0.99 -2.8,2.01 -4.19,3.03 -1.37,-1.02 -2.76,-2.01 -4.16,-2.96 -2.16,1.06 -4.26,2.26 -6.29,3.54 z"
         inkscape:connector-curvature="0"
         style="fill:#c09300" />
      <path
         id="path3348"
         d="m 399.8,465 c -1.35,-6.62 4.84,-12.91 11.36,-12.88 0.6,9.38 -1.51,19.66 3.55,28.16 1.09,2.26 3.25,3.63 5.46,4.64 0.05,-8.94 -5.29,-16.99 -4.57,-25.99 -0.17,-2.85 1.17,-5.42 2.38,-7.9 6.73,2.61 7.64,10.7 8.28,16.92 -0.25,10.63 1.72,22.56 -5.16,31.67 -5.45,0.9 -8.81,-4.31 -11.44,-8.26 -4.6,-8.19 -8.57,-16.99 -9.86,-26.36 z"
         inkscape:connector-curvature="0"
         style="fill:#c09300" />
      <path
         id="path3350"
         d="m 189.94,464.08 c 1.56,-4.15 5.84,-6.55 9.92,-7.67 -0.08,7.95 -1.89,16.49 1.81,23.93 1.21,2.67 3.53,4.54 5.77,6.33 0.41,-3.96 -0.58,-7.81 -1.82,-11.52 -1.77,-5.07 -2.3,-10.59 -1.41,-15.88 0.46,-2.32 4.26,-2.99 5.24,-0.76 3.11,4.92 3.57,10.88 4.14,16.52 0.25,6.3 0,12.71 -1.55,18.84 -1,2.53 -2.71,6.11 -5.98,5.63 -2.39,0.36 -3.8,-1.9 -5.26,-3.37 -3.92,-5.13 -6.89,-11.01 -8.71,-17.21 -1.38,-4.8 -3.15,-9.78 -2.15,-14.84 z"
         inkscape:connector-curvature="0"
         style="fill:#c09300" />
      <path
         id="path3352"
         d="m 162.07,498.15 c 1.6,-1.1 2.94,-3.04 5.02,-3.1 3.19,-0.42 6.29,2.69 5.83,5.88 0.15,2.92 -2.89,4.54 -5.09,5.76 -4.21,-0.33 -6.32,-4.72 -5.76,-8.54 z"
         inkscape:connector-curvature="0"
         style="fill:#c09300" />
      <path
         id="path3354"
         d="m 435.95,500.07 c 0.86,-2.48 3.01,-5.3 5.96,-5 2.83,0.01 4.58,2.8 5.71,5.06 -0.42,2.69 -2.43,4.72 -4.04,6.77 -3.71,-0.16 -7.32,-2.99 -7.63,-6.83 z"
         inkscape:connector-curvature="0"
         style="fill:#c09300" />
      <path
         id="path3356"
         d="m 215.25,509.21 c 7.03,-2.19 14.35,-3.89 21.76,-3.55 23.9,0.18 46.31,9.78 67.38,20.19 4.44,1.97 7.83,-2.28 11.67,-3.7 5.65,-2.22 11.21,-4.63 16.75,-7.1 9.35,-2.78 18.37,-7.03 28.19,-7.96 6.94,-1.04 13.95,-1.8 20.99,-1.34 7.16,0.85 14.1,2.91 21.15,4.33 4.11,1.06 7.37,-1.95 10.88,-3.45 7.66,-0.77 15.25,3.21 20.47,8.61 -1.87,1.24 -3.87,2.3 -5.66,3.66 -0.96,2.26 -1.3,4.96 -3.61,6.35 -9.08,6.27 -20.45,7.8 -31.22,8.06 -6.75,-0.85 -13.76,-1.35 -19.93,-4.47 -4.94,-2.43 -9.85,-4.99 -14.37,-8.14 7.41,-2.49 15.36,-2.28 22.99,-3.69 1.77,-0.31 3.29,-1.29 4.85,-2.12 -11.22,-3.74 -23.34,-2.18 -34.34,1.5 -9.05,3.73 -18.4,6.68 -27.52,10.23 -3.39,1.36 -7.11,2.19 -9.87,4.73 7.03,4.34 14.52,7.9 21.51,12.33 3.91,2.54 8.54,4.15 11.79,7.61 0.47,3.53 -0.81,6.98 -1.09,10.48 -12.57,-10.47 -26.41,-19.47 -41.06,-26.72 -14.37,6.93 -26.78,17.3 -40.07,26.05 -0.86,-3.26 -1.93,-6.5 -2.31,-9.85 2.28,-2.06 5.02,-3.46 7.65,-5 8.47,-5.15 16.96,-10.31 25.85,-14.69 -0.82,-2.12 -3.22,-2.7 -5.07,-3.56 -11.96,-4.31 -23.89,-8.73 -35.88,-12.94 -9.79,-1.64 -20.27,-4.33 -29.82,-0.14 8.42,4.28 18.43,2.37 27.09,5.85 -6.48,3.92 -12.79,8.49 -20.2,10.51 -15.13,4.38 -31.96,1.98 -45.45,-6.05 -1.88,-1.92 -2.36,-4.78 -4.07,-6.81 -1.66,-1.1 -3.54,-1.83 -5.28,-2.79 3.55,-5.01 9.75,-7.57 15.56,-8.95 7.04,-1.56 13.39,5.5 20.29,2.53 z"
         inkscape:connector-curvature="0"
         style="fill:#c09300" />
    </g>
    <g
       id="#bf9300fe">
      <path
         id="path3359"
         d="m 364.46,39.42 c 1.95,-0.48 3.92,0.55 5.21,1.98 1.1,3.41 -3.42,6.13 -6.2,4.15 -3.86,-0.62 -1.72,-5.49 0.99,-6.13 z"
         inkscape:connector-curvature="0"
         style="fill:#bf9300" />
      <path
         id="path3361"
         d="m 349.43,71 c 2.36,-3.27 6.87,-2.94 9.41,-0.1 -0.72,5.14 -8.58,5.21 -9.41,0.1 z"
         inkscape:connector-curvature="0"
         style="fill:#bf9300" />
      <path
         id="path3363"
         d="m 187.64,91.07 c 1.63,-1.53 3.62,-2.55 5.52,-3.69 1.63,1.44 3.18,2.96 4.64,4.58 -1.6,1.01 -3.04,2.48 -4.95,2.87 -2.31,0.06 -4.67,-1.44 -5.21,-3.76 z"
         inkscape:connector-curvature="0"
         style="fill:#bf9300" />
      <path
         id="path3365"
         d="m 234.6,250.6 c 2.19,0.91 4.88,1.3 6.38,3.33 2.81,3.48 5.43,7.23 6.75,11.56 -7,-1.57 -11.58,-8.24 -13.13,-14.89 z"
         inkscape:connector-curvature="0"
         style="fill:#bf9300" />
      <path
         id="path3367"
         d="m 237.12,272.16 c 6.86,0.12 13.2,4.66 16.38,10.61 -7,0.28 -14.63,-3.32 -16.38,-10.61 z"
         inkscape:connector-curvature="0"
         style="fill:#bf9300" />
    </g>
    <g
       id="#bf9200fe">
      <path
         id="path3370"
         d="m 360.55,71.33 c 2.03,-1.74 5.23,-0.11 6.66,1.8 -0.39,3.78 -6.66,5.37 -8.18,1.6 -1.09,-1.18 0.95,-2.43 1.52,-3.4 z"
         inkscape:connector-curvature="0"
         style="fill:#bf9200" />
      <path
         id="path3372"
         d="m 325.92,227.93 c 4.14,-4.49 8.32,-9.08 13.74,-12.07 -0.71,5.49 -4.64,9.75 -8.89,12.93 -3.61,2.6 -6.63,6.38 -11.18,7.36 0.6,-3.7 4.07,-5.6 6.33,-8.22 z"
         inkscape:connector-curvature="0"
         style="fill:#bf9200" />
      <path
         id="path3374"
         d="m 237.46,262.15 c 4.83,2.63 9.78,5.85 12.19,11 -4.57,-0.54 -8.99,-2.66 -11.86,-6.33 -0.24,-1.55 -0.34,-3.1 -0.33,-4.67 z"
         inkscape:connector-curvature="0"
         style="fill:#bf9200" />
      <path
         id="path3376"
         d="m 330.05,283.1 c 3.8,-2.14 7.27,-4.82 11.17,-6.79 -0.23,1.97 0.68,4.45 -1.05,5.95 -3.95,4.29 -10.21,5.1 -15.71,5.6 1.57,-1.9 3.42,-3.58 5.59,-4.76 z"
         inkscape:connector-curvature="0"
         style="fill:#bf9200" />
      <path
         id="path3378"
         d="m 323.58,295.21 c 4.16,-3.74 9.65,-5.39 14.61,-7.78 2.48,-1.02 2.89,1.87 3.25,3.63 -5.14,3.57 -11.72,4.68 -17.86,4.15 z"
         inkscape:connector-curvature="0"
         style="fill:#bf9200" />
      <path
         id="path3380"
         d="m 346.3,300.53 c 8.38,-1.67 15.93,-5.71 23.15,-10.12 -0.26,2.03 -0.58,4.05 -0.9,6.07 -8.36,3.62 -16.58,8.36 -25.78,9.35 0.66,-2.04 0.72,-5.19 3.53,-5.3 z"
         inkscape:connector-curvature="0"
         style="fill:#bf9200" />
      <path
         id="path3382"
         d="m 245.82,292.67 c 5.69,-0.49 12.02,1.08 15.6,5.84 -3.27,0.24 -6.83,0.61 -9.77,-1.17 -2.11,-1.33 -4,-2.99 -5.83,-4.67 z"
         inkscape:connector-curvature="0"
         style="fill:#bf9200" />
      <path
         id="path3384"
         d="m 250.26,302.8 c -0.44,-3.09 3.82,-2.02 5.73,-2.17 3.73,0.74 8.47,0.94 10.71,4.48 -5.52,0.26 -11.57,0.89 -16.44,-2.31 z"
         inkscape:connector-curvature="0"
         style="fill:#bf9200" />
      <path
         id="path3386"
         d="m 249.41,307 c 8.94,1.44 18.48,-0.27 26.94,3.67 3.53,2.07 6.52,4.97 10.17,6.87 3.99,2.21 8.74,2.25 12.86,4.12 3.39,2.17 5.9,5.44 9.2,7.74 3.64,3 8.47,4.65 11.04,8.82 -9.47,-0.36 -14.75,-9.33 -22.36,-13.6 -1.37,0.56 -2.69,1.25 -4.12,1.62 -6.81,-3.91 -12.89,-9.3 -20.45,-11.77 -6.11,-1.51 -12.44,-1.91 -18.7,-2.17 -2.86,-0.26 -5.44,1.1 -8.07,1.98 1.11,-2.46 2.35,-4.85 3.49,-7.28 z"
         inkscape:connector-curvature="0"
         style="fill:#bf9200" />
      <path
         id="path3388"
         d="m 305.98,319.89 c 4.17,-0.15 6.32,3.64 9.02,6.13 3.43,3.8 9.42,4.31 11.81,9.21 -5.57,-0.5 -11.1,-2.9 -14.58,-7.39 -1.98,-2.73 -4.17,-5.3 -6.25,-7.95 z"
         inkscape:connector-curvature="0"
         style="fill:#bf9200" />
      <path
         id="path3390"
         d="m 208.3,356.1 c -4.12,-6.12 -0.34,-14.79 6.4,-17.03 -1.75,5.81 -4.31,11.34 -6.4,17.03 z"
         inkscape:connector-curvature="0"
         style="fill:#bf9200" />
    </g>
    <g
       id="#bf9200ff">
      <path
         id="path3393"
         d="m 136.21,83.91 c 1.55,-0.9 3.07,-1.88 4.74,-2.54 1.75,0.26 3.31,1.14 4.93,1.79 -0.88,1.8 -1.33,5.04 -4,4.67 -2.82,0.73 -4.21,-2.09 -5.67,-3.92 z"
         inkscape:connector-curvature="0"
         style="fill:#bf9200" />
    </g>
    <g
       id="#c09300fe">
      <path
         id="path3396"
         d="m 216.63,274.91 c 5.73,1.42 10.98,4.26 16.67,5.77 2.11,0.67 4.48,1.18 5.98,2.96 0.94,1.4 0.82,3.2 1.19,4.8 -6.3,-1.02 -12.85,-2.02 -18.35,-5.48 -2.85,-1.8 -4.48,-4.93 -5.49,-8.05 z"
         inkscape:connector-curvature="0"
         style="fill:#c09300" />
    </g>
    <g
       id="#bf9200fd">
      <path
         id="path3399"
         d="m 242.4,283.68 c 5.69,0.9 12.71,2.1 15.12,8.17 -6.11,0.04 -12,-2.82 -15.12,-8.17 z"
         inkscape:connector-curvature="0"
         style="fill:#bf9200" />
      <path
         id="path3401"
         d="m 324.03,321.73 c 1.2,-0.8 2.13,-3.06 3.84,-2.08 8.46,3.37 17.74,3.39 26.64,4.71 -4.55,3.53 -10.64,3.44 -16.02,2.33 -5.08,-0.79 -9.69,-3.18 -14.46,-4.96 z"
         inkscape:connector-curvature="0"
         style="fill:#bf9200" />
      <path
         id="path3403"
         d="m 302.48,471.47 c 1.86,-4.1 6.05,-6.24 10,-7.85 0.14,1.46 0.27,2.92 0.37,4.4 -3.16,1.89 -6.69,3.07 -10.37,3.45 z"
         inkscape:connector-curvature="0"
         style="fill:#bf9200" />
    </g>
    <g
       id="#be9200fd">
      <path
         id="path3406"
         d="m 317.26,310.78 c 5.61,-0.62 11.21,1.01 16.48,2.78 -1.23,1.05 -2.45,2.12 -3.83,2.98 -4.38,-1.37 -9.29,-2.4 -12.65,-5.76 z"
         inkscape:connector-curvature="0"
         style="fill:#be9200" />
    </g>
    <g
       id="#bc9000fa">
      <path
         id="path3409"
         d="m 312.12,317.07 c 3.77,-1.79 8.08,-1.81 11.41,0.97 -3.57,1.64 -8.66,2.6 -11.41,-0.97 z"
         inkscape:connector-curvature="0"
         style="opacity:0.98000004;fill:#bc9000" />
    </g>
  </g>
</svg>
